<?xml version="1.0" encoding="UTF-8" standalone="no"?>
<!DOCTYPE svg PUBLIC "-//W3C//DTD SVG 1.0//EN" "http://www.w3.org/TR/2001/PR-SVG-20010719/DTD/svg10.dtd">
<svg width="44cm" height="41cm" viewBox="-175 -3257 870 812" xmlns="http://www.w3.org/2000/svg" xmlns:xlink="http://www.w3.org/1999/xlink">
  <g>
    <rect style="fill: #ffffff" x="163" y="-3177" width="109.6" height="41.1667"/>
    <rect style="fill: none; fill-opacity:0; stroke-width: 2; stroke: #000000" x="163" y="-3177" width="109.6" height="41.1667"/>
    <text font-size="16.9331" style="fill: #000000;text-anchor:middle;font-family:monospace;font-style:normal;font-weight:normal" x="217.8" y="-3151.13">Musician</text>
  </g>
  <g>
    <ellipse style="fill: #ffffff" cx="99.9" cy="-3236" rx="73.9" ry="18"/>
    <ellipse style="fill: none; fill-opacity:0; stroke-width: 2; stroke: #000000" cx="99.9" cy="-3236" rx="73.9" ry="18"/>
    <text font-size="12.7998" style="fill: #000000;text-anchor:middle;font-family:monospace;font-style:normal;font-weight:normal" x="99.9" y="-3232">Personennummer</text>
    <line style="fill: none; fill-opacity:0; stroke-width: 2; stroke: #000000" x1="46" y1="-3228" x2="153.8" y2="-3228"/>
  </g>
  <polyline style="fill: none; fill-opacity:0; stroke-width: 2; stroke: #000000" points="99.9,-3216.99 99.9,-3156.42 163,-3156.42 "/>
  <g>
    <ellipse style="fill: #ffffff" cx="216.4" cy="-3235" rx="35.4" ry="18"/>
    <ellipse style="fill: none; fill-opacity:0; stroke-width: 2; stroke: #000000" cx="216.4" cy="-3235" rx="35.4" ry="18"/>
    <text font-size="12.7998" style="fill: #000000;text-anchor:middle;font-family:monospace;font-style:normal;font-weight:normal" x="216.4" y="-3231">Name</text>
  </g>
  <polyline style="fill: none; fill-opacity:0; stroke-width: 2; stroke: #000000" points="216.4,-3215.99 216.4,-3197 217.8,-3197 217.8,-3178.01 "/>
  <g>
    <ellipse style="fill: #ffffff" cx="-53.8" cy="-3235" rx="66.2" ry="18"/>
    <ellipse style="fill: none; fill-opacity:0; stroke-width: 2; stroke: #000000" cx="-53.8" cy="-3235" rx="66.2" ry="18"/>
    <text font-size="12.7998" style="fill: #000000;text-anchor:middle;font-family:monospace;font-style:normal;font-weight:normal" x="-53.8" y="-3231">ArtisticName</text>
  </g>
  <polyline style="fill: none; fill-opacity:0; stroke-width: 2; stroke: #000000" points="-53.8,-3217 20,-3217 20,-3135.83 163,-3135.83 "/>
  <g>
    <ellipse style="fill: #ffffff" cx="506.95" cy="-3204" rx="46.95" ry="18"/>
    <ellipse style="fill: none; fill-opacity:0; stroke-width: 2; stroke: #000000" cx="506.95" cy="-3204" rx="46.95" ry="18"/>
    <text font-size="12.7998" style="fill: #000000;text-anchor:middle;font-family:monospace;font-style:normal;font-weight:normal" x="506.95" y="-3200">Address</text>
  </g>
  <polyline style="fill: none; fill-opacity:0; stroke-width: 2; stroke: #000000" points="459.643,-3204 424,-3204 424,-3156.42 273.591,-3156.42 "/>
  <g>
    <ellipse style="fill: #ffffff" cx="341.75" cy="-3238" rx="77.75" ry="18"/>
    <ellipse style="fill: none; fill-opacity:0; stroke-width: 2; stroke: #000000" cx="341.75" cy="-3238" rx="77.75" ry="18"/>
    <text font-size="12.7998" style="fill: #000000;text-anchor:middle;font-family:monospace;font-style:normal;font-weight:normal" x="341.75" y="-3234">TelephoneNumber</text>
  </g>
  <polyline style="fill: none; fill-opacity:0; stroke-width: 2; stroke: #000000" points="341.75,-3219.06 341.75,-3168 272.6,-3168 272.6,-3156.42 "/>
  <g>
    <rect style="fill: #ffffff" x="543" y="-3100" width="68.8" height="41.1667"/>
    <rect style="fill: none; fill-opacity:0; stroke-width: 2; stroke: #000000" x="543" y="-3100" width="68.8" height="41.1667"/>
    <rect style="fill: none; fill-opacity:0; stroke-width: 2; stroke: #000000" x="548" y="-3095" width="58.8" height="31.1667"/>
    <text font-size="16.9331" style="fill: #000000;text-anchor:middle;font-family:monospace;font-style:normal;font-weight:normal" x="577.4" y="-3074.13">Home</text>
  </g>
  <g>
    <rect style="fill: #ffffff" x="-90" y="-2926" width="130" height="41.1667"/>
    <rect style="fill: none; fill-opacity:0; stroke-width: 2; stroke: #000000" x="-90" y="-2926" width="130" height="41.1667"/>
    <text font-size="16.9331" style="fill: #000000;text-anchor:middle;font-family:monospace;font-style:normal;font-weight:normal" x="-25" y="-2900.13">Instrument</text>
  </g>
  <g>
    <ellipse style="fill: #ffffff" cx="-46.6" cy="-2838" rx="35.4" ry="18"/>
    <ellipse style="fill: none; fill-opacity:0; stroke-width: 2; stroke: #000000" cx="-46.6" cy="-2838" rx="35.4" ry="18"/>
    <text font-size="12.7998" style="fill: #000000;text-anchor:middle;font-family:monospace;font-style:normal;font-weight:normal" x="-46.6" y="-2834">Name</text>
    <line style="fill: none; fill-opacity:0; stroke-width: 2; stroke: #000000" x1="-62" y1="-2830" x2="-31.2" y2="-2830"/>
  </g>
  <g>
    <ellipse style="fill: #ffffff" cx="-134.75" cy="-2839" rx="39.25" ry="18"/>
    <ellipse style="fill: none; fill-opacity:0; stroke-width: 2; stroke: #000000" cx="-134.75" cy="-2839" rx="39.25" ry="18"/>
    <text font-size="12.7998" style="fill: #000000;text-anchor:middle;font-family:monospace;font-style:normal;font-weight:normal" x="-134.75" y="-2835">Pitch</text>
  </g>
  <polyline style="fill: none; fill-opacity:0; stroke-width: 2; stroke: #000000" points="-134.75,-2858.01 -134.75,-2905.42 -91.0081,-2905.42 "/>
  <polyline style="fill: none; fill-opacity:0; stroke-width: 2; stroke: #000000" points="-21.5684,-2850.73 -21.5684,-2854 -25,-2854 -25,-2883.88 "/>
  <g>
    <rect style="fill: #ffffff" x="437" y="-2636" width="79" height="41.1667"/>
    <rect style="fill: none; fill-opacity:0; stroke-width: 2; stroke: #000000" x="437" y="-2636" width="79" height="41.1667"/>
    <text font-size="16.9331" style="fill: #000000;text-anchor:middle;font-family:monospace;font-style:normal;font-weight:normal" x="476.5" y="-2610.13">Album</text>
  </g>
  <g>
    <ellipse style="fill: #ffffff" cx="399.4" cy="-2552" rx="35.4" ry="18"/>
    <ellipse style="fill: none; fill-opacity:0; stroke-width: 2; stroke: #000000" cx="399.4" cy="-2552" rx="35.4" ry="18"/>
    <text font-size="12.7998" style="fill: #000000;text-anchor:middle;font-family:monospace;font-style:normal;font-weight:normal" x="399.4" y="-2548">Name</text>
  </g>
  <polyline style="fill: none; fill-opacity:0; stroke-width: 2; stroke: #000000" points="399.4,-2570 401,-2570 401,-2594.83 437,-2594.83 "/>
  <g>
    <ellipse style="fill: #ffffff" cx="476.7" cy="-2549" rx="27.7" ry="18"/>
    <ellipse style="fill: none; fill-opacity:0; stroke-width: 2; stroke: #000000" cx="476.7" cy="-2549" rx="27.7" ry="18"/>
    <text font-size="12.7998" style="fill: #000000;text-anchor:middle;font-family:monospace;font-style:normal;font-weight:normal" x="476.7" y="-2545">ID</text>
    <line style="fill: none; fill-opacity:0; stroke-width: 2; stroke: #000000" x1="469" y1="-2541" x2="484.4" y2="-2541"/>
  </g>
  <g>
    <ellipse style="fill: #ffffff" cx="616.05" cy="-2553" rx="70.05" ry="18"/>
    <ellipse style="fill: none; fill-opacity:0; stroke-width: 2; stroke: #000000" cx="616.05" cy="-2553" rx="70.05" ry="18"/>
    <text font-size="12.7998" style="fill: #000000;text-anchor:middle;font-family:monospace;font-style:normal;font-weight:normal" x="616.05" y="-2549">CopyrightDate</text>
  </g>
  <g>
    <ellipse style="fill: #ffffff" cx="619.9" cy="-2615" rx="73.9" ry="18"/>
    <ellipse style="fill: none; fill-opacity:0; stroke-width: 2; stroke: #000000" cx="619.9" cy="-2615" rx="73.9" ry="18"/>
    <ellipse style="fill: none; fill-opacity:0; stroke-width: 2; stroke: #000000" cx="619.9" cy="-2615" rx="65.9" ry="14"/>
    <text font-size="12.7998" style="fill: #000000;text-anchor:middle;font-family:monospace;font-style:normal;font-weight:normal" x="619.9" y="-2611">StorageOptions</text>
  </g>
  <polyline style="fill: none; fill-opacity:0; stroke-width: 2; stroke: #000000" points="476.7,-2568.01 476.7,-2581.42 476.5,-2581.42 476.5,-2594.83 "/>
  <polyline style="fill: none; fill-opacity:0; stroke-width: 2; stroke: #000000" points="544.991,-2553 516,-2553 516,-2594.83 "/>
  <polyline style="fill: none; fill-opacity:0; stroke-width: 2; stroke: #000000" points="546,-2615 531,-2615 531,-2615.42 516,-2615.42 "/>
  <g>
    <rect style="fill: #ffffff" x="88" y="-2488" width="68.8" height="41.1667"/>
    <rect style="fill: none; fill-opacity:0; stroke-width: 2; stroke: #000000" x="88" y="-2488" width="68.8" height="41.1667"/>
    <text font-size="16.9331" style="fill: #000000;text-anchor:middle;font-family:monospace;font-style:normal;font-weight:normal" x="122.4" y="-2462.13">Part</text>
  </g>
  <g>
    <ellipse style="fill: #ffffff" cx="244.25" cy="-2467" rx="39.25" ry="18"/>
    <ellipse style="fill: none; fill-opacity:0; stroke-width: 2; stroke: #000000" cx="244.25" cy="-2467" rx="39.25" ry="18"/>
    <text font-size="12.7998" style="fill: #000000;text-anchor:middle;font-family:monospace;font-style:normal;font-weight:normal" x="244.25" y="-2463">Title</text>
  </g>
  <polyline style="fill: none; fill-opacity:0; stroke-width: 2; stroke: #000000" points="205,-2467 180.9,-2467 180.9,-2467.42 156.8,-2467.42 "/>
  <g>
    <polygon style="fill: #ffffff" points="212,-2557.04 268.6,-2591 325.2,-2557.04 268.6,-2523.08 "/>
    <polygon style="fill: none; fill-opacity:0; stroke-width: 2; stroke: #000000" points="212,-2557.04 268.6,-2591 325.2,-2557.04 268.6,-2523.08 "/>
    <text font-size="10.1598" style="fill: #000000;text-anchor:end;font-family:monospace;font-style:normal;font-weight:normal" x="206" y="-2563.04">M</text>
    <text font-size="10.1598" style="fill: #000000;text-anchor:start;font-family:monospace;font-style:normal;font-weight:normal" x="331.2" y="-2563.04">N</text>
    <text font-size="10.1598" style="fill: #000000;text-anchor:middle;font-family:monospace;font-style:normal;font-weight:normal" x="268.6" y="-2553.87">ContainsPart</text>
  </g>
  <polyline style="fill: none; fill-opacity:0; stroke-width: 2; stroke: #000000" points="325.2,-2557.04 348,-2557.04 348,-2636 437,-2636 "/>
  <polyline style="fill: none; fill-opacity:0; stroke-width: 2; stroke: #000000" points="122.4,-2488 122.4,-2511 212,-2511 212,-2557.04 "/>
  <g>
    <polygon style="fill: #ffffff" points="30,-2620.53 77.45,-2649 124.9,-2620.53 77.45,-2592.06 "/>
    <polygon style="fill: none; fill-opacity:0; stroke-width: 2; stroke: #000000" points="30,-2620.53 77.45,-2649 124.9,-2620.53 77.45,-2592.06 "/>
    <text font-size="10.1598" style="fill: #000000;text-anchor:start;font-family:monospace;font-style:normal;font-weight:normal" x="81.45" y="-2655">N</text>
    <text font-size="10.1598" style="fill: #000000;text-anchor:start;font-family:monospace;font-style:normal;font-weight:normal" x="81.45" y="-2573.36">M</text>
    <text font-size="10.1598" style="fill: #000000;text-anchor:middle;font-family:monospace;font-style:normal;font-weight:normal" x="77.45" y="-2617.36">PlaysPart</text>
  </g>
  <polyline style="fill: none; fill-opacity:0; stroke-width: 2; stroke: #000000" points="163,-3135.83 164,-3135.83 164,-2649 77.45,-2649 "/>
  <polyline style="fill: none; fill-opacity:0; stroke-width: 2; stroke: #000000" points="77.45,-2592.06 77.45,-2488 88,-2488 88,-2488 "/>
  <g>
    <polygon style="fill: #ffffff" points="236,-2852.36 280.4,-2879 324.8,-2852.36 280.4,-2825.72 "/>
    <polygon style="fill: none; fill-opacity:0; stroke-width: 2; stroke: #000000" points="236,-2852.36 280.4,-2879 324.8,-2852.36 280.4,-2825.72 "/>
    <text font-size="10.1598" style="fill: #000000;text-anchor:start;font-family:monospace;font-style:normal;font-weight:normal" x="284.4" y="-2885">1</text>
    <text font-size="10.1598" style="fill: #000000;text-anchor:start;font-family:monospace;font-style:normal;font-weight:normal" x="284.4" y="-2807.02">N</text>
    <text font-size="10.1598" style="fill: #000000;text-anchor:middle;font-family:monospace;font-style:normal;font-weight:normal" x="280.4" y="-2849.19">Produces</text>
  </g>
  <polyline style="fill: none; fill-opacity:0; stroke-width: 2; stroke: #000000" points="280.4,-2879.99 280.4,-3007.91 217.8,-3007.91 217.8,-3135.83 "/>
  <polyline style="fill: none; fill-opacity:0; stroke-width: 2; stroke: #000000" points="280.4,-2825.72 280.4,-2730.86 476.5,-2730.86 476.5,-2636 "/>
  <g>
    <ellipse style="fill: #ffffff" cx="576.95" cy="-2989" rx="46.95" ry="18"/>
    <ellipse style="fill: none; fill-opacity:0; stroke-width: 2; stroke: #000000" cx="576.95" cy="-2989" rx="46.95" ry="18"/>
    <text font-size="12.7998" style="fill: #000000;text-anchor:middle;font-family:monospace;font-style:normal;font-weight:normal" x="576.95" y="-2985">Address</text>
    <line style="fill: none; fill-opacity:0; stroke-width: 2; stroke: #000000" x1="550" y1="-2981" x2="603.9" y2="-2981"/>
  </g>
  <polyline style="fill: none; fill-opacity:0; stroke-width: 2; stroke: #000000" points="576.95,-3007 576.95,-3032.92 577.4,-3032.92 577.4,-3058.83 "/>
  <g>
    <polygon style="fill: #ffffff" points="341,-3079.19 382.35,-3104 423.7,-3079.19 382.35,-3054.38 "/>
    <polygon style="fill: none; fill-opacity:0; stroke-width: 2; stroke: #000000" points="341,-3079.19 382.35,-3104 423.7,-3079.19 382.35,-3054.38 "/>
    <text font-size="10.1598" style="fill: #000000;text-anchor:end;font-family:monospace;font-style:normal;font-weight:normal" x="335" y="-3085.19">N</text>
    <text font-size="10.1598" style="fill: #000000;text-anchor:start;font-family:monospace;font-style:normal;font-weight:normal" x="429.7" y="-3085.19">1</text>
    <text font-size="10.1598" style="fill: #000000;text-anchor:middle;font-family:monospace;font-style:normal;font-weight:normal" x="382.35" y="-3076.02">LivesAt</text>
  </g>
  <polyline style="fill: none; fill-opacity:0; stroke-width: 2; stroke: #000000" points="543,-3079.42 482,-3079.42 482,-3079.19 423.7,-3079.19 "/>
  <polyline style="fill: none; fill-opacity:0; stroke-width: 2; stroke: #000000" points="272.6,-3135.83 272.6,-3107.51 341,-3107.51 341,-3079.19 "/>
</svg>
