<?xml version="1.0" encoding="UTF-8" standalone="no"?>
<!DOCTYPE svg PUBLIC "-//W3C//DTD SVG 1.0//EN" "http://www.w3.org/TR/2001/PR-SVG-20010719/DTD/svg10.dtd">
<svg width="47cm" height="24cm" viewBox="-2 99 925 475" xmlns="http://www.w3.org/2000/svg" xmlns:xlink="http://www.w3.org/1999/xlink">
  <g>
    <rect style="fill: #ffffff" x="348.85" y="128.449" width="263.3" height="54"/>
    <rect style="fill: none; fill-opacity:0; stroke-width: 2; stroke: #000000" x="348.85" y="128.449" width="263.3" height="54"/>
    <text font-size="12.7998" style="fill: #000000;text-anchor:middle;font-family:sans-serif;font-style:normal;font-weight:normal" x="480.5" y="159.349">
      <tspan x="480.5" y="159.349">(p1, r1, turn_p = false, turn_r = false)</tspan>
    </text>
  </g>
  <g>
    <rect style="fill: #ffffff" x="18.7003" y="264.349" width="263.3" height="54"/>
    <rect style="fill: none; fill-opacity:0; stroke-width: 2; stroke: #000000" x="18.7003" y="264.349" width="263.3" height="54"/>
    <text font-size="12.7998" style="fill: #000000;text-anchor:middle;font-family:sans-serif;font-style:normal;font-weight:normal" x="150.35" y="295.249">
      <tspan x="150.35" y="295.249">(p2, r1, turn_p = true, turn_r = false)</tspan>
    </text>
  </g>
  <g>
    <rect style="fill: #ffffff" x="635.11" y="261.521" width="263.3" height="54"/>
    <rect style="fill: none; fill-opacity:0; stroke-width: 2; stroke: #000000" x="635.11" y="261.521" width="263.3" height="54"/>
    <text font-size="12.7998" style="fill: #000000;text-anchor:middle;font-family:sans-serif;font-style:normal;font-weight:normal" x="766.76" y="292.421">
      <tspan x="766.76" y="292.421">(p1, r2, turn_p = false, turn_r = true)</tspan>
    </text>
  </g>
  <g>
    <path style="fill: none; fill-opacity:0; stroke-width: 2; stroke: #000000" d="M 348.85,182.449 A 330.383,330.383 0 0 0 185.288,256.975"/>
    <polygon style="fill: #000000" points="179.619,261.881 183.71,251.477 185.195,256.866 190.397,258.912 "/>
    <polygon style="fill: none; fill-opacity:0; stroke-width: 2; stroke: #000000" points="179.619,261.881 183.71,251.477 185.195,256.866 190.397,258.912 "/>
  </g>
  <g>
    <path style="fill: none; fill-opacity:0; stroke-width: 2; stroke: #000000" d="M 751.904,251.953 A 141.63,141.63 0 0 0 612.15,182.449"/>
    <polygon style="fill: #000000" points="755.503,258.516 746.603,251.749 752.193,251.786 755.577,247.336 "/>
    <polygon style="fill: none; fill-opacity:0; stroke-width: 2; stroke: #000000" points="755.503,258.516 746.603,251.749 752.193,251.786 755.577,247.336 "/>
  </g>
  <g>
    <rect style="fill: #ffffff" x="18.4841" y="392.755" width="263.3" height="54"/>
    <rect style="fill: none; fill-opacity:0; stroke-width: 2; stroke: #000000" x="18.4841" y="392.755" width="263.3" height="54"/>
    <text font-size="12.7998" style="fill: #000000;text-anchor:middle;font-family:sans-serif;font-style:normal;font-weight:normal" x="150.134" y="423.655">
      <tspan x="150.134" y="423.655">(p3, r1, turn_p = true, turn_r = false)</tspan>
    </text>
  </g>
  <g>
    <rect style="fill: #ffffff" x="635.41" y="382.621" width="263.3" height="54"/>
    <rect style="fill: none; fill-opacity:0; stroke-width: 2; stroke: #000000" x="635.41" y="382.621" width="263.3" height="54"/>
    <text font-size="12.7998" style="fill: #000000;text-anchor:middle;font-family:sans-serif;font-style:normal;font-weight:normal" x="767.06" y="413.521">
      <tspan x="767.06" y="413.521">(p1, r3, turn_p = false, turn_r = true)</tspan>
    </text>
  </g>
  <g>
    <line style="fill: none; fill-opacity:0; stroke-width: 2; stroke: #000000" x1="766.76" y1="315.521" x2="767.017" y2="372.885"/>
    <polygon style="fill: #000000" points="767.05,380.385 762.006,370.407 767.017,372.885 772.006,370.363 "/>
    <polygon style="fill: none; fill-opacity:0; stroke-width: 2; stroke: #000000" points="767.05,380.385 762.006,370.407 767.017,372.885 772.006,370.363 "/>
  </g>
  <g>
    <line style="fill: none; fill-opacity:0; stroke-width: 2; stroke: #000000" x1="150.303" y1="319.352" x2="150.198" y2="382.016"/>
    <polygon style="fill: #000000" points="150.185,389.516 145.202,379.508 150.198,382.016 155.202,379.525 "/>
    <polygon style="fill: none; fill-opacity:0; stroke-width: 2; stroke: #000000" points="150.185,389.516 145.202,379.508 150.198,382.016 155.202,379.525 "/>
  </g>
  <g>
    <path style="fill: none; fill-opacity:0; stroke-width: 2; stroke: #000000" d="M 340.152,124.089 A 238.437,238.437 0 0 0 18.4841,433.255"/>
    <polygon style="fill: #000000" points="346.872,127.407 335.694,127.166 340.237,123.909 340.357,118.32 "/>
    <polygon style="fill: none; fill-opacity:0; stroke-width: 2; stroke: #000000" points="346.872,127.407 335.694,127.166 340.237,123.909 340.357,118.32 "/>
  </g>
  <g>
    <path style="fill: none; fill-opacity:0; stroke-width: 2; stroke: #000000" d="M 898.71,436.621 A 225.273,225.273 0 0 0 621.248,125.002"/>
    <polygon style="fill: #000000" points="614.223,127.612 621.624,119.232 621.178,124.804 625.368,128.504 "/>
    <polygon style="fill: none; fill-opacity:0; stroke-width: 2; stroke: #000000" points="614.223,127.612 621.624,119.232 621.178,124.804 625.368,128.504 "/>
  </g>
  <g>
    <rect style="fill: #ffffff" x="330.399" y="262.485" width="263.3" height="54"/>
    <rect style="fill: none; fill-opacity:0; stroke-width: 2; stroke: #000000" x="330.399" y="262.485" width="263.3" height="54"/>
    <text font-size="12.7998" style="fill: #000000;text-anchor:middle;font-family:sans-serif;font-style:normal;font-weight:normal" x="462.049" y="293.385">
      <tspan x="462.049" y="293.385">(p2, r2, turn_p = true, turn_r = true)</tspan>
    </text>
  </g>
  <g>
    <line style="fill: none; fill-opacity:0; stroke-width: 2; stroke: #000000" x1="282" y1="318.349" x2="322.037" y2="294.472"/>
    <polygon style="fill: #000000" points="328.479,290.631 322.451,300.047 322.037,294.472 317.329,291.458 "/>
    <polygon style="fill: none; fill-opacity:0; stroke-width: 2; stroke: #000000" points="328.479,290.631 322.451,300.047 322.037,294.472 317.329,291.458 "/>
  </g>
  <g>
    <line style="fill: none; fill-opacity:0; stroke-width: 2; stroke: #000000" x1="635.11" y1="315.521" x2="601.941" y2="294.667"/>
    <polygon style="fill: #000000" points="595.592,290.675 606.719,291.765 601.941,294.667 601.397,300.231 "/>
    <polygon style="fill: none; fill-opacity:0; stroke-width: 2; stroke: #000000" points="595.592,290.675 606.719,291.765 601.941,294.667 601.397,300.231 "/>
  </g>
  <g>
    <path style="fill: none; fill-opacity:0; stroke-width: 2; stroke: #000000" d="M 396.224,316.485 A 66.8372,66.8372 0 0 0 525.516,325.853"/>
    <polygon style="fill: #000000" points="527.486,318.687 530.677,329.403 526.186,326.074 520.828,327.669 "/>
    <polygon style="fill: none; fill-opacity:0; stroke-width: 2; stroke: #000000" points="527.486,318.687 530.677,329.403 526.186,326.074 520.828,327.669 "/>
  </g>
  <g>
    <rect style="fill: #ffffff" x="18.8132" y="519.346" width="263.3" height="54"/>
    <rect style="fill: none; fill-opacity:0; stroke-width: 2; stroke: #000000" x="18.8132" y="519.346" width="263.3" height="54"/>
    <text font-size="12.7998" style="fill: #000000;text-anchor:middle;font-family:sans-serif;font-style:normal;font-weight:normal" x="150.463" y="550.246">
      <tspan x="150.463" y="550.246">(p3, r2, turn_p = true, turn_r = false)</tspan>
    </text>
  </g>
  <g>
    <line style="fill: none; fill-opacity:0; stroke-width: 2; stroke: #000000" x1="150.134" y1="446.755" x2="150.419" y2="509.611"/>
    <polygon style="fill: #000000" points="150.453,517.11 145.408,507.133 150.419,509.611 155.408,507.088 "/>
    <polygon style="fill: none; fill-opacity:0; stroke-width: 2; stroke: #000000" points="150.453,517.11 145.408,507.133 150.419,509.611 155.408,507.088 "/>
  </g>
  <g>
    <line style="fill: none; fill-opacity:0; stroke-width: 2; stroke: #000000" x1="282.113" y1="519.346" x2="626.679" y2="320.389"/>
    <polygon style="fill: #000000" points="633.174,316.639 627.014,325.969 626.679,320.389 622.014,317.309 "/>
    <polygon style="fill: none; fill-opacity:0; stroke-width: 2; stroke: #000000" points="633.174,316.639 627.014,325.969 626.679,320.389 622.014,317.309 "/>
  </g>
  <g>
    <rect style="fill: #ffffff" x="635.443" y="503.485" width="263.3" height="54"/>
    <rect style="fill: none; fill-opacity:0; stroke-width: 2; stroke: #000000" x="635.443" y="503.485" width="263.3" height="54"/>
    <text font-size="12.7998" style="fill: #000000;text-anchor:middle;font-family:sans-serif;font-style:normal;font-weight:normal" x="767.093" y="534.385">
      <tspan x="767.093" y="534.385">(p2, r3, turn_p = false, turn_r = true)</tspan>
    </text>
  </g>
  <g>
    <line style="fill: none; fill-opacity:0; stroke-width: 2; stroke: #000000" x1="767.06" y1="436.621" x2="767.088" y2="493.749"/>
    <polygon style="fill: #000000" points="767.091,501.249 762.087,491.251 767.088,493.749 772.087,491.246 "/>
    <polygon style="fill: none; fill-opacity:0; stroke-width: 2; stroke: #000000" points="767.091,501.249 762.087,491.251 767.088,493.749 772.087,491.246 "/>
  </g>
  <g>
    <line style="fill: none; fill-opacity:0; stroke-width: 2; stroke: #000000" x1="635.443" y1="503.485" x2="290.625" y2="322.867"/>
    <polygon style="fill: #000000" points="283.981,319.387 295.159,319.598 290.625,322.867 290.519,328.456 "/>
    <polygon style="fill: none; fill-opacity:0; stroke-width: 2; stroke: #000000" points="283.981,319.387 295.159,319.598 290.625,322.867 290.519,328.456 "/>
  </g>
</svg>
